<?xml version="1.0" standalone="no"?><!DOCTYPE svg PUBLIC "-//W3C//DTD SVG 1.1//EN" "http://www.w3.org/Graphics/SVG/1.1/DTD/svg11.dtd"><svg t="1788079157826" class="icon" viewBox="0 0 1024 1024" version="1.1" xmlns="http://www.w3.org/2000/svg" p-id="1887" xmlns:xlink="http://www.w3.org/1999/xlink" width="200" height="200"><path d="M 111.884 623.884 L 111.884 890.58 L 111.884 917.293 L 885.403 917.293 L 912.043 917.293 L 912.043 623.884 L 805.408 623.884 L 778.695 623.884 L 778.695 543.89 L 778.695 517.25 L 992.11 517.25 L 1018.75 517.25 L 1018.75 997.287 L 1018.75 1024 L 31.89 1024 L 5.25 1024 L 5.25 543.89 L 5.25 517.25 L 218.664 517.25 L 245.305 517.25 L 245.305 597.244 L 245.305 623.884 L 111.884 623.884 Z M 565.281 202.703 L 565.281 656.172 L 565.281 682.812 L 485.359 682.812 L 458.646 682.812 L 458.646 202.703 L 303.943 357.406 L 285.32 376.029 L 229.306 320.124 L 210.613 301.467 L 493.323 18.68 L 511.997 0 L 794.694 282.697 L 813.39 301.392 L 757.34 357.334 L 738.689 375.948 L 565.281 202.703 Z" fill="#000000" p-id="1888"></path></svg>